<svg width="60" height="60" viewBox="0 0 60 60" fill="none" xmlns="http://www.w3.org/2000/svg">
<g clip-path="url(#clip0)">
<path d="M10.274 48.8453C10.0415 48.8453 9.81485 48.9392 9.65164 49.1036C9.48726 49.2668 9.39333 49.4946 9.39333 49.7259C9.39333 49.9572 9.48726 50.185 9.65164 50.3482C9.81485 50.5126 10.0415 50.6066 10.274 50.6066C10.5053 50.6066 10.733 50.5126 10.8963 50.3482C11.0606 50.185 11.1546 49.9572 11.1546 49.7259C11.1546 49.4946 11.0606 49.2668 10.8963 49.1036C10.733 48.9392 10.5053 48.8453 10.274 48.8453Z" fill="#EAE0D5"/>
<path d="M58.4968 39.7102L51.643 46.564C51.0836 46.2237 50.4274 46.0275 49.7262 46.0275C48.9939 46.0275 48.3113 46.2424 47.7363 46.611C47.6938 46.4923 47.6259 46.3806 47.5309 46.2856L38.1376 36.8923C38.0943 36.8489 38.0475 36.8111 37.9983 36.7787L38.6225 26.168C38.789 26.1359 38.948 26.0552 39.0769 25.9263L51.2883 13.7149C51.3339 13.6693 51.3732 13.6196 51.4066 13.5673C51.4869 13.5261 51.5662 13.483 51.643 13.4363L58.4968 20.2902C58.6687 20.4621 58.8942 20.5481 59.1195 20.5481C59.3448 20.5481 59.5702 20.4622 59.7421 20.2902C60.0861 19.9462 60.0861 19.3888 59.7421 19.0448L52.8883 12.191C53.2287 11.6316 53.4248 10.9754 53.4248 10.2742C53.4248 8.23476 51.7656 6.57554 49.7262 6.57554C49.0249 6.57554 48.3687 6.77175 47.8093 7.11202L40.9556 0.258179C40.6117 -0.0857342 40.0541 -0.0857342 39.7103 0.258179C39.3664 0.602092 39.3664 1.15959 39.7103 1.5035L46.5641 8.35734C46.2237 8.91671 46.0275 9.57296 46.0275 10.2742C46.0275 10.4301 46.0383 10.5834 46.0571 10.7343L37.2388 16.9071C36.9977 16.567 36.7326 16.2399 36.4406 15.9301C34.7507 14.1379 32.4634 13.1509 30.0002 13.1509C27.5369 13.1509 25.2496 14.1379 23.5597 15.9301C23.2677 16.2399 23.0026 16.5669 22.7615 16.9071L13.9432 10.7343C13.962 10.5834 13.9728 10.4301 13.9728 10.2742C13.9728 9.57296 13.7766 8.91671 13.4363 8.35734L20.2902 1.5035C20.6341 1.15959 20.6341 0.602092 20.2902 0.258179C19.9462 -0.0857342 19.3886 -0.0857342 19.0448 0.258179L12.191 7.11202C11.6316 6.77175 10.9754 6.57554 10.2742 6.57554C8.23476 6.57554 6.57554 8.23476 6.57554 10.2742C6.57554 10.9754 6.77175 11.6316 7.11202 12.191L0.258179 19.0448C-0.0857342 19.3888 -0.0857342 19.9462 0.258179 20.2902C0.430077 20.4622 0.655517 20.5481 0.880839 20.5481C1.10616 20.5481 1.3316 20.4622 1.5035 20.2902L8.35734 13.4363C8.43413 13.483 8.51339 13.5261 8.5937 13.5673C8.62728 13.6196 8.66638 13.6693 8.71206 13.7149L20.9234 25.9263C21.0523 26.0552 21.2113 26.1359 21.3778 26.168L22.002 36.7787C21.9528 36.8111 21.906 36.8489 21.8627 36.8923L12.4694 46.2856C12.3743 46.3807 12.3065 46.4924 12.264 46.611C11.689 46.2424 11.0065 46.0275 10.2742 46.0275C9.57296 46.0275 8.91672 46.2237 8.35734 46.564L1.5035 39.7102C1.15959 39.3662 0.601975 39.3662 0.258179 39.7102C-0.0857342 40.0541 -0.0857342 40.6117 0.258179 40.9555L7.11202 47.8093C6.77175 48.3687 6.57554 49.0249 6.57554 49.7261C6.57554 51.7656 8.23476 53.4248 10.2742 53.4248C10.9754 53.4248 11.6316 53.2287 12.191 52.8884L19.0448 59.7422C19.2167 59.9143 19.4422 60.0002 19.6675 60.0002C19.8928 60.0002 20.1183 59.9143 20.2902 59.7422C20.6341 59.3983 20.6341 58.8407 20.2902 58.4969L13.6124 51.8191L24.3502 46.0373C25.0973 46.5497 25.9995 46.8494 26.9676 46.8494H33.0327C34.0008 46.8494 34.903 46.5497 35.6501 46.0373L46.3879 51.8191L39.7102 58.4969C39.3662 58.8408 39.3662 59.3985 39.7102 59.7422C39.8821 59.9143 40.1075 60.0002 40.3328 60.0002C40.5581 60.0002 40.7836 59.9143 40.9555 59.7422L47.8093 52.8884C48.3687 53.2287 49.0249 53.4248 49.7262 53.4248C51.7656 53.4248 53.4248 51.7656 53.4248 49.7261C53.4248 49.0249 53.2286 48.3687 52.8883 47.8094L59.7421 40.9556C60.0861 40.6117 60.0861 40.0541 59.7421 39.7103C59.3983 39.3664 58.8407 39.3664 58.4968 39.7102ZM46.2855 47.5309C46.3806 47.626 46.4923 47.6938 46.611 47.7363C46.2593 48.285 46.0487 48.9318 46.0301 49.6261L36.9284 44.7253C37.3501 44.0737 37.6142 43.3092 37.6628 42.484L37.8614 39.1069L46.2855 47.5309ZM49.7262 8.33679C50.7944 8.33679 51.6635 9.20591 51.6635 10.2742C51.6635 11.3425 50.7944 12.2115 49.7262 12.2115C48.6579 12.2115 47.7888 11.3425 47.7888 10.2742C47.7888 9.20591 48.6579 8.33679 49.7262 8.33679ZM46.7178 12.4217C47.1942 13.0871 47.8849 13.5884 48.6888 13.8237L38.765 23.7475L38.8371 22.5226C38.921 21.0957 38.6675 19.7094 38.1117 18.4461L46.7178 12.4217ZM24.8412 17.1385C25.0078 16.9617 25.1819 16.795 25.3623 16.6381V18.7279C25.3623 19.2143 25.7566 19.6086 26.2429 19.6086C26.7293 19.6086 27.1236 19.2143 27.1236 18.7279V15.9102C27.1236 15.7826 27.0959 15.6617 27.0471 15.5523C27.9595 15.134 28.9597 14.9121 30.0002 14.9121C31.0406 14.9121 32.0409 15.134 32.9533 15.5523C32.9045 15.6617 32.8769 15.7826 32.8769 15.9102V18.7279C32.8769 19.2143 33.2712 19.6086 33.7575 19.6086C34.2438 19.6086 34.6381 19.2143 34.6381 18.7279V16.6381C34.8186 16.795 34.9926 16.9617 35.1592 17.1385C36.5129 18.5741 37.1945 20.4495 37.0786 22.4193L35.9045 42.3804C35.85 43.3071 35.3583 44.1107 34.6381 44.5967V22.4855C34.6381 21.9992 34.2438 21.6049 33.7575 21.6049C33.2712 21.6049 32.8769 21.9992 32.8769 22.4855V45.0295C32.8769 45.0493 32.8785 45.0687 32.8798 45.0882H27.1205C27.1218 45.0687 27.1235 45.0493 27.1235 45.0295V22.4855C27.1235 21.9992 26.7292 21.6049 26.2428 21.6049C25.7565 21.6049 25.3622 21.9992 25.3622 22.4855V44.5967C24.642 44.1107 24.1505 43.3071 24.0959 42.3804L22.9217 22.4193C22.8058 20.4495 23.4875 18.5741 24.8412 17.1385ZM10.2742 8.33679C11.3424 8.33679 12.2115 9.20591 12.2115 10.2742C12.2115 11.3425 11.3424 12.2115 10.2742 12.2115C9.20591 12.2115 8.33679 11.3425 8.33679 10.2742C8.33679 9.20591 9.20591 8.33679 10.2742 8.33679ZM11.3117 13.8237C12.1155 13.5884 12.8063 13.0871 13.2826 12.4217L21.8889 18.4461C21.3331 19.7094 21.0796 21.0957 21.1635 22.5226L21.2356 23.7475L11.3117 13.8237ZM22.1391 39.1068L22.3378 42.4839C22.3864 43.3091 22.6504 44.0737 23.072 44.7251L13.9703 49.626C13.9518 48.9317 13.7411 48.2849 13.3895 47.7362C13.5082 47.6937 13.6198 47.6259 13.7149 47.5308L22.1391 39.1068ZM10.2742 51.6635C9.20591 51.6635 8.33679 50.7945 8.33679 49.7261C8.33679 48.6579 9.20591 47.7888 10.2742 47.7888C11.3424 47.7888 12.2115 48.6579 12.2115 49.7261C12.2115 50.7945 11.3424 51.6635 10.2742 51.6635ZM49.7262 51.6635C48.6579 51.6635 47.7888 50.7945 47.7888 49.7261C47.7888 48.6579 48.6579 47.7888 49.7262 47.7888C50.7944 47.7888 51.6635 48.6579 51.6635 49.7261C51.6635 50.7945 50.7944 51.6635 49.7262 51.6635Z" fill="#EAE0D5"/>
<path d="M49.7259 48.8453C49.4946 48.8453 49.2668 48.9392 49.1036 49.1036C48.9392 49.2668 48.8453 49.4946 48.8453 49.7259C48.8453 49.9572 48.9392 50.185 49.1036 50.3482C49.2668 50.5126 49.4946 50.6066 49.7259 50.6066C49.9572 50.6066 50.185 50.5126 50.3482 50.3482C50.5126 50.185 50.6066 49.9572 50.6066 49.7259C50.6066 49.4946 50.5126 49.2668 50.3482 49.1036C50.185 48.9392 49.9572 48.8453 49.7259 48.8453Z" fill="#EAE0D5"/>
<path d="M49.7259 11.1546C49.9572 11.1546 50.185 11.0606 50.3482 10.8962C50.5126 10.733 50.6066 10.5052 50.6066 10.2739C50.6066 10.0426 50.5126 9.81484 50.3482 9.65163C50.185 9.48724 49.9572 9.39331 49.7259 9.39331C49.4946 9.39331 49.2668 9.48724 49.1036 9.65163C48.9392 9.81484 48.8453 10.0426 48.8453 10.2739C48.8453 10.5052 48.9392 10.733 49.1036 10.8962C49.2668 11.0606 49.4946 11.1546 49.7259 11.1546Z" fill="#EAE0D5"/>
<path d="M10.274 11.1546C10.5053 11.1546 10.733 11.0606 10.8963 10.8962C11.0606 10.733 11.1546 10.5052 11.1546 10.2739C11.1546 10.0426 11.0606 9.81484 10.8963 9.65163C10.733 9.48724 10.5053 9.39331 10.274 9.39331C10.0415 9.39331 9.81485 9.48724 9.65164 9.65163C9.48726 9.81484 9.39333 10.0426 9.39333 10.2739C9.39333 10.5052 9.48726 10.733 9.65164 10.8962C9.81485 11.0606 10.0415 11.1546 10.274 11.1546Z" fill="#EAE0D5"/>
<path d="M29.9999 43.0919C30.4863 43.0919 30.8806 42.6977 30.8806 42.2113V39.3933C30.8806 38.9069 30.4863 38.5126 29.9999 38.5126C29.5136 38.5126 29.1193 38.9069 29.1193 39.3933V42.2113C29.1193 42.6977 29.5136 43.0919 29.9999 43.0919Z" fill="#EAE0D5"/>
</g>
<defs>
<clipPath id="clip0">
<rect width="60" height="60" fill="white"/>
</clipPath>
</defs>
</svg>
